<svg width="587" height="76" viewBox="0 0 587 76" fill="none" xmlns="http://www.w3.org/2000/svg">
<path d="M566.112 67.3713C552.768 67.0833 546.432 54.6033 547.968 43.7553C549.504 31.9473 558.24 23.9793 570.24 24.7473C580.512 25.5153 583.776 35.3073 584.256 38.4753C585.504 39.5313 586.56 41.5473 586.56 42.2193C586.368 43.1793 585.024 43.9473 582.624 44.4273C578.88 45.1953 562.656 46.8273 557.28 46.5393C556.8 51.4353 557.856 59.7873 566.496 60.0753C569.28 60.3633 573.216 59.4033 574.464 58.9233C579.36 57.2913 581.184 55.8513 582.048 56.9073C582.816 57.6753 582.144 60.7473 578.304 63.8193C574.464 66.6993 569.568 67.3713 566.112 67.3713ZM575.904 38.2833C575.136 34.4433 571.296 29.8353 566.112 30.8913C561.312 31.6593 558.528 36.9393 557.76 40.9713C564.672 39.9153 570.144 39.0513 575.904 38.2833Z
M523.772 63.7233C520.22 53.9313 515.036 41.0673 508.604 30.7953C507.74 29.4513 505.628 27.5313 505.628 25.9953C505.628 25.1313 506.492 24.6513 508.124 24.6513C510.428 24.6513 514.556 25.9953 515.42 27.1473C519.164 31.9473 525.212 48.4593 526.844 54.8913C528.956 48.8433 530.396 44.1393 535.004 30.7953C534.716 30.0273 534.428 28.0113 534.428 26.0913C534.428 23.8833 534.621 21.6753 535.677 21.1953C535.869 21.0993 536.156 21.0993 536.444 21.0993C541.052 21.0993 543.357 29.5473 543.357 30.6033C543.357 32.6193 542.876 34.7313 542.204 36.3633C537.884 46.6353 534.716 53.6433 530.108 63.2433C528.668 65.9313 527.132 67.9473 524.924 67.9473C524.061 67.9473 523.58 67.6593 523.484 66.9873C523.388 66.6993 523.484 65.2593 523.772 63.7233Z
M492.308 54.6033V30.0273C492.308 29.2593 492.116 29.1633 491.828 29.0673C490.58 28.6833 488.372 28.2033 487.508 27.8193C486.26 27.2433 485.204 25.8033 485.204 24.5553C485.204 23.6913 487.124 22.9233 487.988 22.6353C491.156 21.5793 493.652 21.0993 496.724 21.1953C499.796 21.1953 500.276 24.0753 500.276 25.0353V54.5073C500.276 60.7473 497.588 70.0593 494.9 70.0593C492.692 70.0593 492.308 59.1153 492.308 54.6033ZM495.38 16.1073C493.94 16.3953 490.964 15.1473 489.428 13.3233C487.412 11.1153 490.004 6.31533 492.692 6.31533C495.668 6.31533 499.604 8.33133 499.604 10.6353C499.604 12.8433 497.684 15.8193 495.38 16.1073Z
M461.429 25.8033V21.5793C461.429 17.6433 461.237 15.7233 459.413 13.3233C458.741 12.4593 459.125 9.67534 460.181 9.00333C462.293 7.94734 469.205 13.0353 469.973 14.6673C470.549 15.3393 470.837 16.1073 470.837 16.8753C470.261 19.1793 470.261 20.6193 470.261 22.9233V25.1313C473.141 24.7473 476.021 24.2673 478.901 23.7873C480.341 23.4993 483.125 24.4593 483.221 25.3233C483.221 27.2433 480.533 30.6993 478.613 30.6993C476.789 30.6993 474.965 30.7953 473.237 30.9873L470.261 31.2753V43.9473C470.261 52.7793 470.069 63.3393 477.749 63.3393C479.477 63.3393 482.549 62.5713 482.549 63.8193C482.549 64.7793 480.821 67.9473 476.405 68.4273C471.509 69.0993 466.709 66.9873 464.501 63.8193C461.429 59.4993 461.429 53.6433 461.429 44.3313V32.2353C459.701 32.3313 457.877 32.3313 455.861 32.3313C454.325 32.3313 450.485 30.6033 450.485 28.5873C450.581 27.8193 451.157 26.7633 451.541 26.6673C452.693 26.6673 454.037 26.5713 455.285 26.4753L461.429 25.8033Z
M442.389 26.5713C444.981 28.8753 446.037 32.9073 444.405 33.6753C443.349 34.1553 441.141 32.5233 439.125 31.4673C437.877 30.7953 434.709 29.5473 431.253 29.8353C424.437 30.5073 420.597 37.1313 420.885 46.3473C421.173 54.4113 424.917 62.2833 433.077 61.9953C437.781 61.8993 441.429 60.4593 444.213 58.6353C446.133 57.4833 448.629 55.8513 449.301 56.7153C450.069 58.0593 447.957 61.1313 446.709 62.5713C443.157 66.4113 437.493 68.5233 431.829 68.5233C419.253 68.5233 411.669 58.6353 411.381 46.5393C411.093 34.7313 418.197 23.5953 429.621 22.8273C435.861 22.3473 440.277 25.0353 442.389 26.5713Z
M386.956 67.3713C373.612 67.0833 367.276 54.6033 368.812 43.7553C370.348 31.9473 379.084 23.9793 391.084 24.7473C401.356 25.5153 404.62 35.3073 405.1 38.4753C406.348 39.5313 407.404 41.5473 407.404 42.2193C407.212 43.1793 405.868 43.9473 403.468 44.4273C399.724 45.1953 383.5 46.8273 378.124 46.5393C377.644 51.4353 378.7 59.7873 387.34 60.0753C390.124 60.3633 394.06 59.4033 395.308 58.9233C400.204 57.2913 402.028 55.8513 402.892 56.9073C403.66 57.6753 402.988 60.7473 399.148 63.8193C395.308 66.6993 390.412 67.3713 386.956 67.3713ZM396.748 38.2833C395.98 34.4433 392.14 29.8353 386.956 30.8913C382.156 31.6593 379.372 36.9393 378.604 40.9713C385.516 39.9153 390.988 39.0513 396.748 38.2833Z
M343.117 25.8033V21.5793C343.117 17.6433 342.925 15.7233 341.101 13.3233C340.429 12.4593 340.813 9.67534 341.869 9.00333C343.981 7.94734 350.893 13.0353 351.661 14.6673C352.237 15.3393 352.525 16.1073 352.525 16.8753C351.949 19.1793 351.949 20.6193 351.949 22.9233V25.1313C354.829 24.7473 357.709 24.2673 360.589 23.7873C362.029 23.4993 364.813 24.4593 364.909 25.3233C364.909 27.2433 362.221 30.6993 360.301 30.6993C358.477 30.6993 356.653 30.7953 354.925 30.9873L351.949 31.2753V43.9473C351.949 52.7793 351.757 63.3393 359.437 63.3393C361.165 63.3393 364.237 62.5713 364.237 63.8193C364.237 64.7793 362.509 67.9473 358.093 68.4273C353.197 69.0993 348.397 66.9873 346.189 63.8193C343.117 59.4993 343.117 53.6433 343.117 44.3313V32.2353C341.389 32.3313 339.565 32.3313 337.549 32.3313C336.013 32.3313 332.173 30.6033 332.173 28.5873C332.269 27.8193 332.845 26.7633 333.229 26.6673C334.381 26.6673 335.725 26.5713 336.973 26.4753L343.117 25.8033Z
M311.3 67.3713C297.956 67.0833 291.62 54.6033 293.156 43.7553C294.692 31.9473 303.428 23.9793 315.428 24.7473C325.7 25.5153 328.964 35.3073 329.444 38.4753C330.692 39.5313 331.748 41.5473 331.748 42.2193C331.556 43.1793 330.212 43.9473 327.812 44.4273C324.068 45.1953 307.844 46.8273 302.468 46.5393C301.988 51.4353 303.044 59.7873 311.684 60.0753C314.468 60.3633 318.404 59.4033 319.652 58.9233C324.548 57.2913 326.372 55.8513 327.236 56.9073C328.004 57.6753 327.332 60.7473 323.492 63.8193C319.652 66.6993 314.756 67.3713 311.3 67.3713ZM321.092 38.2833C320.324 34.4433 316.484 29.8353 311.3 30.8913C306.5 31.6593 303.716 36.9393 302.948 40.9713C309.86 39.9153 315.332 39.0513 321.092 38.2833Z
M241.239 41.2593V10.2513C241.239 9.96333 238.071 8.42733 237.399 7.85133C236.343 6.89133 234.903 5.83533 234.903 2.28333C234.903 -0.11667 236.055 -0.11667 237.111 0.075333C239.031 0.459334 245.079 3.14733 247.383 4.97133C250.551 4.20333 253.143 3.72333 256.599 3.72333C275.319 3.72333 286.455 16.9713 286.455 35.4033C286.455 53.3553 270.039 66.4113 254.775 66.4113C251.319 66.4113 250.839 65.3553 250.839 64.6833C250.839 62.4753 255.735 61.1313 260.151 59.0193C267.543 55.9473 275.991 47.5953 275.991 35.3073C275.991 22.6353 270.711 11.5953 254.199 11.5953C252.471 11.5953 250.743 11.6913 249.015 11.8833C249.303 18.6993 249.303 25.6113 249.303 32.4273C249.303 39.3393 249.111 44.1393 248.535 49.8993C248.055 55.0833 245.943 66.3153 242.967 67.0833C242.199 67.2753 240.663 64.8753 239.895 62.2833C240.471 57.7713 241.143 52.3953 241.239 41.2593Z
M186.818 71.0193C186.818 70.8273 186.722 69.6753 194.402 69.3873C202.946 69.0993 211.298 69.1953 223.49 68.8113C225.41 68.7153 227.426 68.6193 230.018 68.7153C231.458 68.8113 231.746 69.7713 231.746 69.9633C231.746 70.6353 231.074 71.4993 230.402 72.2673C228.77 74.0913 226.754 75.2433 223.49 75.3393C216.002 75.5313 208.802 75.6273 201.41 75.5313C195.938 75.4353 191.714 75.1473 190.37 74.5713C187.298 73.1313 186.818 71.3073 186.818 71.0193Z
M163.737 67.3713C150.393 67.0833 144.057 54.6033 145.593 43.7553C147.129 31.9473 155.865 23.9793 167.865 24.7473C178.137 25.5153 181.401 35.3073 181.881 38.4753C183.129 39.5313 184.185 41.5473 184.185 42.2193C183.993 43.1793 182.649 43.9473 180.249 44.4273C176.505 45.1953 160.281 46.8273 154.905 46.5393C154.425 51.4353 155.481 59.7873 164.121 60.0753C166.905 60.3633 170.841 59.4033 172.089 58.9233C176.985 57.2913 178.809 55.8513 179.673 56.9073C180.441 57.6753 179.769 60.7473 175.929 63.8193C172.089 66.6993 167.193 67.3713 163.737 67.3713ZM173.529 38.2833C172.761 34.4433 168.921 29.8353 163.737 30.8913C158.937 31.6593 156.153 36.9393 155.385 40.9713C162.297 39.9153 167.769 39.0513 173.529 38.2833Z
M127.353 28.4913V10.6353C127.353 9.77133 127.257 9.67533 126.585 9.57933C125.337 9.38733 124.089 9.00333 122.841 8.42733C121.401 7.75533 120.249 6.31533 120.249 5.64333C120.249 4.77934 122.169 3.81933 123.033 3.53133C125.625 2.47533 130.329 1.99533 132.633 1.99533C134.169 1.99533 135.897 4.87533 135.897 5.93133V59.5953C135.897 61.5153 135.993 64.5873 136.665 66.0273C138.105 68.6193 140.505 69.1953 140.601 69.9633C140.889 72.1713 134.265 71.3073 133.113 70.8273C130.425 69.5793 127.353 67.0833 127.353 56.3313V35.8833C125.433 34.4433 122.073 32.6193 118.521 32.9073C113.529 33.1953 105.945 35.2113 106.233 48.0753C106.233 57.0033 108.345 66.7953 118.713 63.7233C120.825 63.2433 124.953 61.2273 126.009 61.7073C127.737 62.5713 121.785 70.4433 115.737 70.4433C105.753 70.4433 96.9212 63.6273 96.9212 48.6513C96.9212 35.8833 104.697 24.2673 117.945 24.2673C121.113 24.2673 125.145 25.8033 127.353 28.4913Z
M50.1332 46.5393C50.1332 34.5393 59.6372 23.6913 73.1732 23.6913C84.4052 23.6913 92.1812 34.3473 92.1812 45.5793C92.1812 57.1953 83.3492 69.1953 70.2932 69.1953C57.9092 69.1953 50.1332 59.6913 50.1332 46.5393ZM72.9812 31.9473C64.5332 31.9473 58.1972 38.8593 58.1972 46.9233C58.1972 53.4513 63.2852 60.8433 70.7732 60.8433C78.2612 60.8433 84.5972 52.7793 84.5972 45.0993C84.5972 39.0513 80.1812 31.9473 72.9812 31.9473Z
M24.7765 13.1313C18.3445 15.1473 14.8885 20.7153 12.7765 24.6513C10.6645 29.0673 9.89646 36.6513 10.1845 41.3553C10.6645 47.8833 14.0245 59.3073 22.9525 60.7473C28.4245 61.6113 33.5125 59.6913 36.0085 58.4433C38.7925 57.0993 44.5525 53.5473 45.8965 55.2753C47.5285 57.2913 43.4965 62.1873 39.6565 64.9713C36.1045 67.5633 30.3445 69.6753 25.2565 69.7713C18.2485 69.8673 11.2405 67.6593 6.92046 62.7633C1.83246 57.1953 -0.951539 44.5233 0.296461 34.6353C1.83246 22.5393 9.32046 6.98734 25.5445 5.45133C32.5525 4.68333 41.9605 8.04333 41.6725 10.1553C41.1925 13.2273 36.4885 13.3233 33.7045 12.7473C30.5365 12.0753 27.7525 12.0753 24.7765 13.1313Z" fill="#181"/>
</svg>
