<svg width="315" height="33" viewBox="0 0 315 33" fill="none" xmlns="http://www.w3.org/2000/svg">
<path d="M26.216 22.664C26.48 22.472 27.116 22.436 28.124 22.556C29.156 22.652 29.96 22.868 30.536 23.204C30.944 23.42 31.292 23.66 31.58 23.924C31.892 24.164 32.012 24.332 31.94 24.428C31.892 24.524 31.964 24.74 32.156 25.076C32.348 25.388 32.552 25.616 32.768 25.76C33.032 25.952 33.092 26.048 32.948 26.048C32.804 26.048 32.528 26.336 32.12 26.912C31.736 27.44 31.448 27.752 31.256 27.848C31.064 27.944 30.752 27.944 30.32 27.848C29.84 27.752 29.444 27.596 29.132 27.38C28.82 27.164 28.076 26.516 26.9 25.436C26.276 24.884 25.952 24.38 25.928 23.924C25.904 23.276 26 22.856 26.216 22.664ZM16.064 22.556C16.064 22.436 16.112 22.364 16.208 22.34C16.328 22.316 16.472 22.352 16.64 22.448C17.048 22.688 17.228 23.696 17.18 25.472C17.108 26.528 17.012 27.176 16.892 27.416C16.796 27.656 16.496 27.896 15.992 28.136C15.704 28.304 15.5 28.388 15.38 28.388C15.26 28.388 15.104 28.34 14.912 28.244C14.624 28.1 14.42 27.944 14.3 27.776C14.18 27.584 14.084 27.344 14.012 27.056C13.916 26.432 14.096 25.652 14.552 24.716C14.744 24.308 14.972 23.912 15.236 23.528C15.524 23.12 15.74 22.88 15.884 22.808C16.004 22.76 16.064 22.676 16.064 22.556ZM21.212 19.856C21.284 19.712 21.548 19.664 22.004 19.712C22.46 19.736 22.712 19.82 22.76 19.964C22.784 20.036 22.868 20.072 23.012 20.072C23.252 20.072 23.396 20.3 23.444 20.756C23.516 21.212 23.564 22.4 23.588 24.32C23.588 26.84 23.54 28.34 23.444 28.82C23.348 29.564 22.844 30.392 21.932 31.304C21.692 31.544 21.512 31.676 21.392 31.7C21.272 31.724 21.008 31.712 20.6 31.664C20.024 31.568 19.736 31.436 19.736 31.268C19.736 31.1 19.664 30.956 19.52 30.836C19.4 30.716 19.34 30.608 19.34 30.512C19.34 30.44 19.1 30.068 18.62 29.396C18.164 28.724 17.876 28.34 17.756 28.244C17.588 28.076 17.516 27.764 17.54 27.308C17.564 27.044 17.936 27.092 18.656 27.452C18.848 27.572 19.028 27.692 19.196 27.812C19.652 28.148 20 28.304 20.24 28.28C20.504 28.256 20.672 27.98 20.744 27.452C20.816 26.924 20.876 25.592 20.924 23.456C20.972 21.176 21.068 19.976 21.212 19.856ZM8.252 17.588C8.684 17.156 8.9 17.192 8.9 17.696C8.876 18.176 8.672 18.836 8.288 19.676C7.832 20.612 7.532 21.368 7.388 21.944C7.268 22.496 7.208 23.12 7.208 23.816C7.232 24.656 7.316 25.16 7.46 25.328C7.604 25.496 7.676 25.76 7.676 26.12C7.676 26.456 7.616 26.684 7.496 26.804C7.328 26.924 7.244 27.044 7.244 27.164C7.244 27.284 7.076 27.512 6.74 27.848C6.404 28.184 6.02 28.376 5.588 28.424C5.156 28.472 4.772 28.388 4.436 28.172C4.22 28.028 3.884 27.62 3.428 26.948C2.996 26.276 2.78 25.844 2.78 25.652C2.78 25.508 2.66 25.352 2.42 25.184C2.204 24.992 2.156 24.836 2.276 24.716C2.42 24.596 2.492 24.452 2.492 24.284C2.492 24.092 2.564 23.996 2.708 23.996C2.852 23.996 2.924 23.912 2.924 23.744C2.924 23.552 3.2 23.18 3.752 22.628C4.328 22.076 4.82 21.584 5.228 21.152C5.66 20.72 6.02 20.372 6.308 20.108C6.596 19.844 6.824 19.556 6.992 19.244C7.28 18.788 7.7 18.236 8.252 17.588ZM2.312 10.82C2.48 10.748 2.78 10.82 3.212 11.036C3.644 11.228 3.992 11.312 4.256 11.288C4.52 11.24 4.904 11.336 5.408 11.576L6.128 11.972V12.836C6.128 13.796 5.852 14.456 5.3 14.816C4.772 15.152 4.136 15.068 3.392 14.564C2.384 13.916 1.664 13.256 1.232 12.584C0.728 11.768 1.088 11.18 2.312 10.82ZM14.048 8.84C14.216 7.928 14.42 7.208 14.66 6.68C14.9 6.152 15.056 5.888 15.128 5.888C15.224 5.888 15.356 6.128 15.524 6.608C15.716 7.088 15.896 7.484 16.064 7.796C16.4 8.324 16.34 9.812 15.884 12.26C15.692 13.364 15.56 14.36 15.488 15.248C15.416 16.136 15.344 16.652 15.272 16.796C15.2 16.916 15.128 17.216 15.056 17.696C15.008 18.152 14.936 18.524 14.84 18.812C14.744 19.1 14.696 19.364 14.696 19.604C14.696 19.844 14.624 20.132 14.48 20.468C14.36 20.78 14.24 21.128 14.12 21.512C14 21.896 13.844 22.208 13.652 22.448C13.46 22.664 13.34 22.928 13.292 23.24C13.244 23.528 13.172 23.672 13.076 23.672C12.98 23.672 12.932 23.768 12.932 23.96C12.932 24.128 12.776 24.404 12.464 24.788C12.176 25.172 12.032 25.4 12.032 25.472C12.032 25.616 11.804 26.036 11.348 26.732C10.892 27.428 10.508 27.968 10.196 28.352C8.876 29.912 8.096 30.692 7.856 30.692C7.664 30.692 7.568 30.608 7.568 30.44C7.568 30.272 7.652 30.068 7.82 29.828C8.012 29.564 8.144 29.348 8.216 29.18C8.408 28.772 8.624 28.424 8.864 28.136C9.032 27.92 9.32 27.392 9.728 26.552C10.136 25.712 10.436 25.052 10.628 24.572C11.084 23.348 11.504 22.1 11.888 20.828C12.296 19.532 12.5 18.728 12.5 18.416C12.5 18.152 12.536 17.9 12.608 17.66C12.752 17.276 12.932 16.172 13.148 14.348C13.292 13.148 13.436 12.152 13.58 11.36L14.048 8.84ZM21.032 4.808C21.272 4.616 21.452 4.544 21.572 4.592C21.716 4.64 21.968 4.856 22.328 5.24C22.568 5.528 22.724 5.756 22.796 5.924C22.892 6.092 22.94 6.308 22.94 6.572C22.94 7.004 22.76 7.4 22.4 7.76C22.04 8.12 21.872 8.324 21.896 8.372C21.944 8.42 22.544 8.492 23.696 8.588C24.752 8.708 25.832 8.912 26.936 9.2C28.064 9.464 28.784 9.728 29.096 9.992C29.432 10.232 29.684 10.532 29.852 10.892C29.996 11.132 30.068 11.324 30.068 11.468C30.068 11.588 30.032 11.78 29.96 12.044C29.816 12.476 29.66 12.776 29.492 12.944C29.372 13.088 29.24 13.4 29.096 13.88C28.976 14.336 28.916 14.72 28.916 15.032C28.916 15.224 28.868 15.32 28.772 15.32C28.7 15.32 28.448 15.764 28.016 16.652C27.608 17.516 27.368 18.02 27.296 18.164C26.96 18.74 26.792 19.184 26.792 19.496C26.792 19.76 26.696 19.976 26.504 20.144C26.312 20.288 25.88 20.468 25.208 20.684C24.68 20.876 24.356 20.936 24.236 20.864C24.116 20.792 23.948 20.504 23.732 20C23.396 19.16 22.772 18.812 21.86 18.956C21.404 19.028 21.14 19.112 21.068 19.208C21.02 19.304 20.864 19.352 20.6 19.352C20.336 19.352 20.12 19.424 19.952 19.568C19.784 19.712 19.52 19.76 19.16 19.712C18.8 19.664 18.488 19.52 18.224 19.28C17.96 19.04 17.852 18.752 17.9 18.416C17.948 18.104 17.9 17.6 17.756 16.904C17.636 16.184 17.468 15.548 17.252 14.996C16.604 13.364 16.28 12.284 16.28 11.756C16.304 11.204 16.652 10.604 17.324 9.956C18.236 9.116 18.812 8.432 19.052 7.904C19.268 7.448 19.592 6.932 20.024 6.356C20.48 5.756 20.708 5.396 20.708 5.276C20.708 5.132 20.816 4.976 21.032 4.808ZM24.56 10.856C23.552 10.376 22.172 10.28 20.42 10.568C19.388 10.76 18.8 10.916 18.656 11.036C18.512 11.132 18.44 11.468 18.44 12.044C18.44 12.476 18.452 12.74 18.476 12.836C18.524 12.908 18.62 12.92 18.764 12.872C19.028 12.824 19.628 12.68 20.564 12.44C21.476 12.176 22.076 12.044 22.364 12.044C22.652 12.044 22.94 12.188 23.228 12.476C23.732 13.004 23.66 13.496 23.012 13.952C22.652 14.192 22.268 14.288 21.86 14.24C21.428 14.192 20.864 14.228 20.168 14.348C19.496 14.468 19.16 14.588 19.16 14.708C19.208 14.948 19.316 15.32 19.484 15.824C19.676 16.328 19.832 16.616 19.952 16.688C20.12 16.856 20.612 16.868 21.428 16.724L23.372 16.472C23.708 16.4 23.912 16.34 23.984 16.292C24.08 16.22 24.176 16.064 24.272 15.824C24.392 15.44 24.524 15.068 24.668 14.708C25.148 13.484 25.364 12.536 25.316 11.864C25.292 11.576 25.232 11.384 25.136 11.288C25.064 11.168 24.872 11.024 24.56 10.856ZM7.1 2.036C7.34 1.94 7.628 1.928 7.964 2C8.324 2.048 8.6 2.144 8.792 2.288C9.008 2.408 9.26 2.468 9.548 2.468C9.812 2.468 10.136 2.576 10.52 2.792C10.928 3.008 11.204 3.236 11.348 3.476C11.516 3.692 11.624 3.992 11.672 4.376C11.696 4.64 11.684 4.844 11.636 4.988C11.612 5.132 11.48 5.336 11.24 5.6C10.736 6.296 10.184 6.584 9.584 6.464C9.392 6.416 9.056 6.176 8.576 5.744C8.096 5.288 7.688 4.844 7.352 4.412C7.088 4.028 6.812 3.752 6.524 3.584C6.236 3.392 6.092 3.164 6.092 2.9C6.092 2.684 6.164 2.516 6.308 2.396C6.452 2.252 6.716 2.132 7.1 2.036ZM21.284 0.955998C22.148 0.907999 22.7 0.871999 22.94 0.847998C23.252 0.847998 23.672 0.931998 24.2 1.1C24.728 1.268 25.124 1.448 25.388 1.64C25.604 1.832 25.736 1.976 25.784 2.072C25.856 2.144 25.844 2.264 25.748 2.432C25.676 2.672 25.628 2.924 25.604 3.188C25.604 3.452 25.496 3.74 25.28 4.052C25.088 4.268 24.932 4.388 24.812 4.412C24.716 4.436 24.428 4.424 23.948 4.376C22.844 4.232 21.836 4.196 20.924 4.268C20.036 4.34 19.508 4.472 19.34 4.664C19.244 4.856 19.064 4.952 18.8 4.952C18.536 4.928 18.272 4.808 18.008 4.592C16.928 3.704 16.4 3.152 16.424 2.936C16.472 2.792 16.496 2.684 16.496 2.612C16.52 2.516 16.772 2.36 17.252 2.144C18.788 1.472 20.132 1.076 21.284 0.955998ZM61.028 19.244C62.084 19.172 62.66 19.172 62.756 19.244C63.092 19.46 63.284 19.964 63.332 20.756C63.356 21.092 63.356 21.332 63.332 21.476C63.308 21.596 63.224 21.752 63.08 21.944C62.672 22.352 62.084 22.4 61.316 22.088C60.908 21.944 60.26 21.896 59.372 21.944C55.916 22.184 53.468 22.676 52.028 23.42C51.596 23.66 51.308 23.78 51.164 23.78C50.972 23.78 50.624 23.636 50.12 23.348C49.64 23.036 49.364 22.808 49.292 22.664C49.196 22.4 49.22 22.136 49.364 21.872C49.532 21.584 49.796 21.356 50.156 21.188C50.924 20.852 52.484 20.468 54.836 20.036C57.212 19.604 59.276 19.34 61.028 19.244ZM44.288 8.48C44.528 7.904 44.672 7.616 44.72 7.616C44.84 7.616 45.14 7.772 45.62 8.084C46.124 8.396 46.46 8.636 46.628 8.804C46.844 9.02 46.952 9.176 46.952 9.272C46.976 9.344 46.928 9.512 46.808 9.776L46.52 10.568C46.424 10.688 46.256 10.952 46.016 11.36C45.8 11.744 45.692 12.044 45.692 12.26C45.692 12.404 45.752 12.488 45.872 12.512C46.016 12.536 46.448 12.548 47.168 12.548C48.656 12.524 49.748 12.764 50.444 13.268C50.756 13.508 50.912 13.784 50.912 14.096C50.912 14.336 50.828 14.672 50.66 15.104C50.492 15.536 50.324 15.788 50.156 15.86C50.084 15.908 50.048 16.076 50.048 16.364C50.048 16.628 49.976 16.82 49.832 16.94C49.712 17.06 49.604 17.3 49.508 17.66C49.436 17.996 49.256 18.368 48.968 18.776C48.608 19.304 48.5 20.036 48.644 20.972C48.692 21.284 48.632 21.524 48.464 21.692C48.368 21.884 48.14 22.04 47.78 22.16C47.42 22.256 47.108 22.28 46.844 22.232C46.604 22.16 46.112 22.256 45.368 22.52C44.648 22.76 44.204 22.88 44.036 22.88C43.772 22.88 43.64 23.264 43.64 24.032C43.64 24.344 43.556 24.536 43.388 24.608C43.244 24.656 43.04 24.584 42.776 24.392C42.536 24.2 42.344 23.876 42.2 23.42C42.056 22.964 41.888 22.136 41.696 20.936C41.408 19.256 41.192 18.416 41.048 18.416C40.976 18.416 40.556 18.8 39.788 19.568C39.044 20.336 38.492 20.852 38.132 21.116C37.772 21.38 37.568 21.536 37.52 21.584C37.472 21.656 37.328 21.776 37.088 21.944C36.848 22.112 36.692 22.196 36.62 22.196C36.404 22.196 37.388 20.624 39.572 17.48L40.544 16.04L40.472 15.104L40.4 14.204L41.3 13.772C41.9 13.508 42.212 13.304 42.236 13.16C42.284 13.016 42.356 12.872 42.452 12.728C42.548 12.584 42.752 12.128 43.064 11.36C43.52 10.208 43.928 9.248 44.288 8.48ZM46.376 14.924C46.304 14.492 45.764 14.42 44.756 14.708C44.276 14.828 43.88 15.068 43.568 15.428C42.896 16.22 42.632 16.88 42.776 17.408C42.92 17.744 43.016 18.284 43.064 19.028C43.088 19.7 43.16 20.072 43.28 20.144C43.4 20.192 43.808 20.084 44.504 19.82C45.104 19.604 45.476 19.448 45.62 19.352C45.764 19.256 45.836 19.076 45.836 18.812C45.836 18.548 45.884 18.284 45.98 18.02C46.1 17.708 46.208 17.168 46.304 16.4C46.424 15.632 46.448 15.14 46.376 14.924ZM42.308 4.88C43.196 4.472 44.156 4.196 45.188 4.052C46.22 3.884 46.916 3.752 47.276 3.656C47.636 3.56 48.176 3.5 48.896 3.476C49.448 3.452 49.796 3.464 49.94 3.512C50.084 3.536 50.264 3.656 50.48 3.872C50.648 4.04 50.756 4.196 50.804 4.34C50.876 4.484 50.912 4.724 50.912 5.06C50.912 5.588 50.804 5.924 50.588 6.068C50.396 6.188 49.94 6.236 49.22 6.212C48.548 6.188 47.564 6.356 46.268 6.716C44.972 7.052 44.204 7.292 43.964 7.436C43.556 7.7 42.968 7.832 42.2 7.832C41.936 7.832 41.576 7.7 41.12 7.436C40.808 7.244 40.616 7.1 40.544 7.004C40.472 6.908 40.436 6.74 40.436 6.5C40.436 6.14 40.532 5.888 40.724 5.744C40.916 5.576 41.444 5.288 42.308 4.88ZM58.616 1.892C59.48 1.82 59.936 1.748 59.984 1.676C60.056 1.58 60.164 1.568 60.308 1.64C60.476 1.712 60.86 1.856 61.46 2.072C62.084 2.288 62.48 2.48 62.648 2.648C62.96 3.08 62.9 3.656 62.468 4.376C62.228 4.76 62.06 5.324 61.964 6.068C61.868 6.788 61.712 7.724 61.496 8.876C61.304 10.028 61.208 10.82 61.208 11.252C61.208 11.66 61.172 11.948 61.1 12.116C61.028 12.284 60.956 12.5 60.884 12.764L60.776 13.16H61.64C62.216 13.16 62.984 13.268 63.944 13.484C64.904 13.676 65.648 13.808 66.176 13.88C66.704 13.952 67.232 14.12 67.76 14.384C68.096 14.504 68.336 14.636 68.48 14.78C68.624 14.9 68.744 15.08 68.84 15.32C69.008 15.704 69.164 15.92 69.308 15.968C69.452 16.064 69.452 17.576 69.308 20.504C69.26 21.152 69.104 21.944 68.84 22.88C68.576 23.816 68.336 24.404 68.12 24.644C67.976 24.812 67.904 24.956 67.904 25.076C67.904 25.196 67.76 25.448 67.472 25.832C67.184 26.192 67.04 26.432 67.04 26.552C67.04 26.648 66.968 26.72 66.824 26.768C66.68 26.816 66.608 26.912 66.608 27.056C66.608 27.128 66.464 27.332 66.176 27.668C65.888 27.98 65.684 28.136 65.564 28.136C65.516 28.136 65.372 28.304 65.132 28.64C64.916 28.952 64.676 29.168 64.412 29.288C64.172 29.432 63.74 29.708 63.116 30.116C62.444 30.524 61.916 30.776 61.532 30.872C61.172 30.992 60.812 30.98 60.452 30.836L59.84 30.692L59.768 29.72C59.72 29.096 59.564 28.604 59.3 28.244C59.036 27.884 58.904 27.644 58.904 27.524C58.904 27.38 58.688 27.2 58.256 26.984C57.848 26.768 57.38 26.408 56.852 25.904C56.372 25.424 56.192 25.16 56.312 25.112C56.504 25.064 56.732 25.1 56.996 25.22C57.284 25.34 57.56 25.424 57.824 25.472C58.112 25.496 58.472 25.556 58.904 25.652C59.36 25.748 59.912 25.796 60.56 25.796C61.208 25.796 61.712 25.676 62.072 25.436C62.432 25.196 62.66 25.076 62.756 25.076C63.092 25.076 63.512 24.548 64.016 23.492C64.736 21.884 65.156 20.228 65.276 18.524L65.348 16.832L64.916 16.364C64.628 16.076 64.196 15.836 63.62 15.644C63.236 15.5 62.876 15.416 62.54 15.392C62.228 15.368 61.64 15.368 60.776 15.392C59.456 15.44 58.436 15.584 57.716 15.824C56.996 16.04 56.228 16.448 55.412 17.048C54.932 17.384 54.644 17.756 54.548 18.164C54.452 18.572 54.284 18.848 54.044 18.992C53.804 19.112 53.576 19.052 53.36 18.812C53 18.476 52.76 17.924 52.64 17.156C52.52 16.388 52.58 15.824 52.82 15.464C53.204 14.888 53.504 13.496 53.72 11.288C53.888 9.776 53.972 8.84 53.972 8.48C53.972 8.144 54.056 7.808 54.224 7.472C54.392 7.112 54.548 6.932 54.692 6.932C54.86 6.932 54.98 6.968 55.052 7.04C55.148 7.088 55.208 7.256 55.232 7.544C55.28 7.832 55.304 8.204 55.304 8.66C55.328 9.092 55.34 9.776 55.34 10.712C55.34 12.92 55.364 14.048 55.412 14.096C55.484 14.144 55.796 14.072 56.348 13.88C56.924 13.688 57.332 13.592 57.572 13.592C57.74 13.592 57.836 13.556 57.86 13.484C57.884 13.412 57.884 13.22 57.86 12.908C57.716 11.996 57.944 10.076 58.544 7.148C58.688 6.476 58.784 5.708 58.832 4.844L58.94 3.548L58.148 3.656C57.14 3.752 56.36 4.028 55.808 4.484C55.352 4.844 54.968 4.964 54.656 4.844C54.368 4.7 54.224 4.34 54.224 3.764C54.224 3.476 54.248 3.296 54.296 3.224C54.368 3.128 54.536 3.008 54.8 2.864C55.88 2.312 57.152 1.988 58.616 1.892ZM96.344 5.348C97.664 5.228 98.936 5.312 100.16 5.6C101.408 5.864 102.356 6.26 103.004 6.788C103.268 6.98 103.412 7.136 103.436 7.256C103.484 7.352 103.484 7.604 103.436 8.012C103.364 8.54 103.304 9.008 103.256 9.416C103.232 9.824 103.184 10.244 103.112 10.676C103.04 11.084 103.004 11.912 103.004 13.16C103.028 14.408 102.968 15.092 102.824 15.212C102.704 15.332 102.656 15.884 102.68 16.868C102.824 20.468 102.944 22.64 103.04 23.384C103.16 23.984 103.232 24.848 103.256 25.976C103.256 26.816 103.232 27.368 103.184 27.632C103.16 27.872 103.028 28.232 102.788 28.712C102.452 29.336 102.26 29.732 102.212 29.9C102.092 30.188 101.888 30.488 101.6 30.8C101.336 31.112 101.12 31.268 100.952 31.268C100.88 31.268 100.736 31.388 100.52 31.628C100.232 31.868 99.908 31.964 99.548 31.916C99.212 31.892 99.044 31.724 99.044 31.412C99.044 31.124 98.876 30.8 98.54 30.44C98.228 30.104 97.868 29.852 97.46 29.684C96.908 29.444 96.428 29.144 96.02 28.784C95.756 28.568 95.6 28.412 95.552 28.316C95.504 28.196 95.528 28.076 95.624 27.956C95.84 27.596 96.428 27.332 97.388 27.164C97.988 27.044 98.384 26.9 98.576 26.732C98.768 26.54 98.864 26.24 98.864 25.832L98.828 25.184L98.612 25.688C98.444 26.072 98.156 26.336 97.748 26.48C97.34 26.6 96.56 26.684 95.408 26.732L93.5 26.768L92.996 27.344C92.636 27.752 92.396 28.052 92.276 28.244C92.084 28.436 91.856 28.508 91.592 28.46C91.352 28.412 91.1 28.244 90.836 27.956C90.596 27.644 90.44 27.284 90.368 26.876C90.248 26.3 90.212 25.988 90.26 25.94C90.332 25.892 90.308 25.736 90.188 25.472C90.044 25.112 89.96 24.704 89.936 24.248C89.936 23.792 89.996 23.432 90.116 23.168C90.236 22.88 90.356 22.196 90.476 21.116C90.62 20.012 90.764 18.92 90.908 17.84C91.076 16.76 91.148 15.74 91.124 14.78C91.124 13.796 91.136 12.464 91.16 10.784C91.208 9.08 91.196 8.228 91.124 8.228C91.052 8.228 91.004 8.192 90.98 8.12C90.98 8.048 90.992 7.952 91.016 7.832C91.04 7.712 91.088 7.58 91.16 7.436C91.256 7.196 91.628 6.884 92.276 6.5C92.924 6.092 93.5 5.816 94.004 5.672C94.556 5.552 95.336 5.444 96.344 5.348ZM97.928 6.932C96.944 6.692 95.816 6.692 94.544 6.932C93.08 7.22 92.36 7.58 92.384 8.012C92.384 8.156 92.516 8.276 92.78 8.372C93.164 8.564 93.2 8.78 92.888 9.02C92.768 9.14 92.708 9.296 92.708 9.488C92.708 9.656 92.684 10.184 92.636 11.072C92.612 11.96 92.636 12.404 92.708 12.404C92.78 12.404 92.876 12.332 92.996 12.188C93.14 12.02 93.296 11.936 93.464 11.936C93.656 11.936 93.968 11.84 94.4 11.648C94.856 11.456 95.348 11.324 95.876 11.252C96.404 11.18 96.704 11.204 96.776 11.324C96.848 11.444 96.98 11.504 97.172 11.504C97.412 11.504 97.604 11.6 97.748 11.792C97.892 11.984 97.964 12.248 97.964 12.584C97.964 13.016 97.844 13.34 97.604 13.556C97.388 13.748 96.992 13.892 96.416 13.988C95.744 14.108 95.204 14.288 94.796 14.528C94.124 14.936 93.548 14.984 93.068 14.672C92.948 14.576 92.84 14.528 92.744 14.528C92.672 14.504 92.612 14.54 92.564 14.636C92.54 14.708 92.516 14.828 92.492 14.996C92.468 15.164 92.456 15.416 92.456 15.752C92.408 16.352 92.348 16.772 92.276 17.012C92.228 17.252 92.288 17.36 92.456 17.336C92.624 17.336 92.984 17.264 93.536 17.12C94.136 16.976 94.856 16.904 95.696 16.904C96.56 16.904 97.1 17.024 97.316 17.264C97.556 17.48 97.544 17.912 97.28 18.56C97.184 18.848 97.004 19.064 96.74 19.208C96.5 19.328 96.092 19.388 95.516 19.388C94.7 19.388 94.136 19.58 93.824 19.964C93.704 20.132 93.5 20.192 93.212 20.144C92.636 20.024 92.312 20.012 92.24 20.108C92.192 20.18 92.168 20.66 92.168 21.548C92.12 23.132 92.204 24.08 92.42 24.392C92.636 24.704 93.224 24.764 94.184 24.572C95 24.428 95.828 24.32 96.668 24.248C97.532 24.176 98.096 24.236 98.36 24.428C98.624 24.596 98.792 24.644 98.864 24.572C98.936 24.5 98.972 21.74 98.972 16.292C98.996 10.844 98.972 7.952 98.9 7.616C98.876 7.448 98.804 7.328 98.684 7.256C98.588 7.16 98.336 7.052 97.928 6.932ZM84.428 0.667998C84.572 0.619998 84.716 0.607999 84.86 0.631998C85.004 0.655998 85.076 0.727998 85.076 0.847998C85.076 0.919998 85.148 0.955998 85.292 0.955998C85.436 0.955998 85.64 1.112 85.904 1.424C86.048 1.688 86.144 1.94 86.192 2.18C86.24 2.42 86.252 3.152 86.228 4.376C86.204 5.912 86.252 6.728 86.372 6.824C86.468 6.848 86.684 6.776 87.02 6.608C87.332 6.44 87.62 6.392 87.884 6.464C88.148 6.536 88.496 6.608 88.928 6.68C89.312 6.776 89.612 6.944 89.828 7.184C90.068 7.4 90.164 7.628 90.116 7.868C90.044 8.084 89.9 8.396 89.684 8.804C89.516 9.212 89.324 9.44 89.108 9.488C88.916 9.512 88.52 9.416 87.92 9.2C86.768 8.744 86.204 8.756 86.228 9.236C86.228 9.38 86.276 9.536 86.372 9.704C86.492 9.872 86.552 10.004 86.552 10.1C86.552 10.196 86.468 10.352 86.3 10.568C86.108 10.928 86 11.612 85.976 12.62L85.904 14.132L86.48 14.492C86.864 14.756 87.26 14.972 87.668 15.14C88.076 15.308 88.34 15.584 88.46 15.968C88.58 16.328 88.604 16.64 88.532 16.904C88.46 17.168 88.28 17.516 87.992 17.948C87.704 18.356 87.428 18.608 87.164 18.704C86.924 18.776 86.6 18.716 86.192 18.524C85.832 18.308 85.652 18.248 85.652 18.344C85.676 18.488 85.628 18.692 85.508 18.956C85.388 19.196 85.304 19.856 85.256 20.936C85.232 22.016 85.184 22.64 85.112 22.808C85.04 22.952 85.004 23.6 85.004 24.752C85.028 25.88 84.992 26.528 84.896 26.696C84.824 26.864 84.764 27.248 84.716 27.848C84.692 28.424 84.572 28.784 84.356 28.928C84.14 29.048 83.972 29.3 83.852 29.684C83.684 30.092 83.516 30.32 83.348 30.368C83.204 30.44 82.988 30.392 82.7 30.224C82.508 30.128 82.364 29.972 82.268 29.756C82.172 29.54 82.052 29.144 81.908 28.568C81.692 27.656 81.632 27.128 81.728 26.984C81.944 26.528 82.136 25.208 82.304 23.024C82.376 22.304 82.436 21.44 82.484 20.432C82.532 19.424 82.556 18.608 82.556 17.984C82.58 17.36 82.58 17 82.556 16.904C82.484 16.904 82.232 17.072 81.8 17.408C81.368 17.744 81.14 17.948 81.116 18.02C81.068 18.092 80.984 18.128 80.864 18.128C80.744 18.128 80.66 18.188 80.612 18.308C80.54 18.476 79.928 18.992 78.776 19.856C78.416 20.096 77.924 20.48 77.3 21.008C76.676 21.536 76.064 21.992 75.464 22.376L74.528 22.988L74.636 22.484C74.708 22.148 74.744 21.932 74.744 21.836C74.744 21.716 75.308 21.068 76.436 19.892C77.588 18.692 78.38 17.756 78.812 17.084L80.576 14.456C81.824 12.536 82.556 11.396 82.772 11.036C82.988 10.676 83.096 10.304 83.096 9.92C83.096 9.44 83.048 9.2 82.952 9.2C82.736 9.2 82.316 9.332 81.692 9.596C81.068 9.86 80.672 10.076 80.504 10.244C80.12 10.628 79.82 10.844 79.604 10.892C79.412 10.94 79.124 10.844 78.74 10.604C78.38 10.388 78.14 10.172 78.02 9.956C77.924 9.716 77.9 9.38 77.948 8.948C77.972 8.684 78.464 8.36 79.424 7.976C80.408 7.592 81.32 7.34 82.16 7.22C82.712 7.172 83.048 7.112 83.168 7.04C83.288 6.968 83.432 6.068 83.6 4.34C83.768 2.588 83.9 1.664 83.996 1.568C84.116 1.448 84.176 1.304 84.176 1.136C84.176 0.943998 84.26 0.787998 84.428 0.667998ZM135.26 19.892C135.644 19.532 136.604 19.64 138.14 20.216C138.62 20.36 139.148 20.648 139.724 21.08C140.3 21.512 140.732 21.908 141.02 22.268C141.14 22.46 141.2 22.628 141.2 22.772C141.224 22.916 141.2 23.216 141.128 23.672C140.984 24.344 140.852 24.764 140.732 24.932C140.468 25.244 140.072 25.34 139.544 25.22C139.016 25.1 138.512 24.812 138.032 24.356C137.6 23.924 137.348 23.708 137.276 23.708C137.204 23.708 136.916 23.36 136.412 22.664C135.908 21.968 135.656 21.56 135.656 21.44C135.656 21.32 135.548 21.176 135.332 21.008C135.14 20.816 135.032 20.612 135.008 20.396C135.008 20.18 135.092 20.012 135.26 19.892ZM115.424 14.348C115.928 13.964 116.492 14.048 117.116 14.6C117.332 14.816 117.476 15.008 117.548 15.176C117.62 15.344 117.692 15.632 117.764 16.04C117.836 16.664 117.824 17.348 117.728 18.092C117.632 18.836 117.56 19.82 117.512 21.044C117.296 25.724 117.068 28.304 116.828 28.784C116.756 28.952 116.528 29.168 116.144 29.432L115.64 29.828L115.172 29.36C114.812 28.904 114.596 28.304 114.524 27.56C114.452 26.816 114.5 25.604 114.668 23.924C115.076 20.276 115.244 17.588 115.172 15.86C115.148 15.26 115.16 14.876 115.208 14.708C115.256 14.54 115.328 14.42 115.424 14.348ZM120.896 11.9C121.088 11.684 121.424 11.576 121.904 11.576C122.216 11.576 122.42 11.6 122.516 11.648C122.636 11.696 122.792 11.84 122.984 12.08C123.224 12.416 123.344 12.668 123.344 12.836C123.344 13.004 123.44 13.268 123.632 13.628C124.112 14.588 124.388 15.404 124.46 16.076C124.628 17.636 124.832 18.416 125.072 18.416C125.168 18.416 125.78 17.852 126.908 16.724C127.892 15.788 128.528 15.212 128.816 14.996C129.104 14.756 129.32 14.696 129.464 14.816C129.584 14.936 129.488 15.284 129.176 15.86C128.888 16.412 128.624 16.868 128.384 17.228C128.168 17.564 128.024 17.828 127.952 18.02C127.856 18.14 127.544 18.596 127.016 19.388C126.512 20.18 126.176 20.672 126.008 20.864C125.936 20.936 125.732 21.224 125.396 21.728C125.06 22.208 124.76 22.628 124.496 22.988C124.256 23.324 124.028 23.708 123.812 24.14C123.692 24.404 123.584 24.572 123.488 24.644C123.392 24.716 123.26 24.752 123.092 24.752C122.78 24.752 122.444 24.62 122.084 24.356C121.748 24.092 121.472 23.756 121.256 23.348C120.992 22.868 120.86 22.544 120.86 22.376C120.86 22.208 120.98 21.992 121.22 21.728C121.46 21.44 121.58 21.236 121.58 21.116C121.58 20.996 121.7 20.648 121.94 20.072C122.204 19.496 122.312 18.884 122.264 18.236C122.096 16.7 121.868 15.596 121.58 14.924C121.508 14.708 121.364 14.384 121.148 13.952C120.668 12.92 120.584 12.236 120.896 11.9ZM135.44 7.832C135.896 7.472 136.628 7.76 137.636 8.696C138.092 9.128 138.368 9.416 138.464 9.56C138.56 9.704 138.584 9.896 138.536 10.136C138.488 10.448 138.392 10.688 138.248 10.856C138.104 11 137.756 11.84 137.204 13.376C136.652 14.888 136.256 15.896 136.016 16.4C135.368 17.768 135.044 18.512 135.044 18.632C135.044 18.824 134.312 19.58 132.848 20.9C131.408 22.22 130.52 22.94 130.184 23.06C129.968 23.108 129.86 23.18 129.86 23.276C129.86 23.372 129.728 23.468 129.464 23.564C129.2 23.66 128.648 23.96 127.808 24.464C126.968 24.968 126.524 25.184 126.476 25.112C126.428 25.088 126.752 24.608 127.448 23.672C128.144 22.736 128.612 22.136 128.852 21.872C129.212 21.512 129.8 20.552 130.616 18.992C130.952 18.344 131.312 17.72 131.696 17.12C132.296 16.232 132.668 15.644 132.812 15.356C132.884 15.164 133.052 14.888 133.316 14.528C133.532 14.216 133.796 13.604 134.108 12.692C134.42 11.78 134.624 10.964 134.72 10.244C134.984 8.756 135.224 7.952 135.44 7.832ZM126.98 7.328C127.268 7.208 127.628 7.172 128.06 7.22C128.516 7.268 128.84 7.292 129.032 7.292C129.176 7.292 129.428 7.46 129.788 7.796C130.148 8.132 130.436 8.492 130.652 8.876C130.868 9.188 130.964 9.536 130.94 9.92C130.94 10.304 130.832 10.652 130.616 10.964C130.28 11.396 129.92 11.6 129.536 11.576C129.152 11.528 128.684 11.24 128.132 10.712C127.628 10.232 127.076 9.812 126.476 9.452C125.876 9.092 125.576 8.84 125.576 8.696C125.576 8.528 125.528 8.444 125.432 8.444C125.216 8.444 125.288 8.3 125.648 8.012C125.792 7.892 125.924 7.796 126.044 7.724L126.98 7.328ZM118.88 2.972C119.216 2.732 119.48 2.672 119.672 2.792C119.888 2.912 120.26 3.38 120.788 4.196C121.196 4.748 121.436 5.144 121.508 5.384C121.58 5.624 121.544 5.792 121.4 5.888C121.232 5.984 120.992 6.26 120.68 6.716C120.392 7.148 120.164 7.436 119.996 7.58C119.852 7.724 119.78 7.844 119.78 7.94C119.78 8.036 119.576 8.312 119.168 8.768C118.76 9.224 118.424 9.548 118.16 9.74C117.896 9.908 117.764 10.052 117.764 10.172C117.764 10.292 117.608 10.496 117.296 10.784C117.008 11.072 116.444 11.804 115.604 12.98C114.98 13.82 114.14 14.78 113.084 15.86C112.052 16.94 111.08 17.9 110.168 18.74C109.112 19.604 108.656 19.652 108.8 18.884C108.824 18.812 108.848 18.728 108.872 18.632C108.944 18.296 109.052 18.092 109.196 18.02C109.292 17.924 109.784 17.3 110.672 16.148C111.584 14.972 112.076 14.288 112.148 14.096C112.196 13.952 112.292 13.784 112.436 13.592L113.264 12.26L114.596 10.172C115.388 9.02 115.808 8.36 115.856 8.192C116.192 7.472 116.516 6.872 116.828 6.392C117.932 4.688 118.484 3.704 118.484 3.44C118.484 3.296 118.616 3.14 118.88 2.972ZM147.536 10.244C147.848 9.908 148.04 9.764 148.112 9.812C148.208 9.836 148.484 10.208 148.94 10.928L149.444 11.684L149.228 12.764C149.084 13.484 148.964 13.892 148.868 13.988C148.772 14.084 148.736 14.324 148.76 14.708C148.784 15.068 148.844 15.332 148.94 15.5C149.036 15.596 149.096 15.74 149.12 15.932C149.168 16.1 149.18 16.256 149.156 16.4C149.132 16.52 149.072 16.58 148.976 16.58C148.856 16.58 148.676 16.688 148.436 16.904C148.22 17.12 147.884 17.348 147.428 17.588L146.744 17.948L146.24 17.516C145.88 17.228 145.568 16.7 145.304 15.932L144.872 14.816L145.268 13.988C145.508 13.436 145.676 13.16 145.772 13.16C145.868 13.16 146.096 12.776 146.456 12.008C146.84 11.24 147.2 10.652 147.536 10.244ZM164.744 0.739999C165.008 0.595999 165.44 0.667999 166.04 0.955998C166.664 1.244 167.084 1.604 167.3 2.036C167.492 2.396 167.66 2.672 167.804 2.864C167.948 3.032 168.032 3.38 168.056 3.908C168.08 4.436 168.056 4.904 167.984 5.312C167.888 5.672 167.816 6.332 167.768 7.292L167.696 8.732H168.128C168.416 8.732 168.56 8.684 168.56 8.588C168.56 8.54 168.764 8.504 169.172 8.48C169.604 8.432 170.036 8.432 170.468 8.48C170.924 8.528 171.212 8.588 171.332 8.66C171.524 8.804 171.62 9.104 171.62 9.56C171.62 9.992 171.524 10.304 171.332 10.496C171.164 10.688 171.08 10.832 171.08 10.928C171.08 11.144 170.372 11.348 168.956 11.54C168.188 11.612 167.78 11.672 167.732 11.72C167.708 11.768 167.672 12.224 167.624 13.088L167.48 14.42L169.064 14.348C170.12 14.276 170.792 14.336 171.08 14.528C171.536 14.792 171.764 15.152 171.764 15.608C171.764 16.04 171.548 16.508 171.116 17.012C170.78 17.42 170.516 17.576 170.324 17.48C170.132 17.384 169.676 17.336 168.956 17.336C168.308 17.336 167.9 17.444 167.732 17.66C167.588 17.852 167.492 18.428 167.444 19.388C167.396 20.3 167.324 20.96 167.228 21.368C167.108 21.896 167.096 22.196 167.192 22.268C167.288 22.34 167.732 22.352 168.524 22.304C169.484 22.208 170.444 22.16 171.404 22.16C172.364 22.136 172.892 22.076 172.988 21.98C173.132 21.86 173.684 21.908 174.644 22.124C175.628 22.34 176.264 22.556 176.552 22.772C176.984 23.084 177.164 23.528 177.092 24.104C177.02 24.656 176.708 25.148 176.156 25.58C175.628 25.988 174.752 26.048 173.528 25.76C173.12 25.664 171.728 25.592 169.352 25.544C167 25.472 165.368 25.52 164.456 25.688C163.544 25.856 162.836 25.94 162.332 25.94C161.108 25.94 160.016 26.18 159.056 26.66L158.372 26.948L157.832 26.696C157.424 26.48 156.992 26.204 156.536 25.868C156.08 25.532 155.744 25.328 155.528 25.256C155.168 25.136 155.12 24.98 155.384 24.788C155.48 24.74 155.528 24.584 155.528 24.32C155.528 23.888 156.116 23.612 157.292 23.492C157.868 23.42 158.42 23.312 158.948 23.168C159.5 23.024 160.136 22.928 160.856 22.88C161.6 22.832 162.224 22.736 162.728 22.592L163.484 22.448L163.664 21.116C163.784 20.228 163.88 19.496 163.952 18.92L164.024 18.056H163.592C163.28 18.056 163.076 18.104 162.98 18.2C162.908 18.296 162.632 18.416 162.152 18.56C161.792 18.704 161.552 18.776 161.432 18.776C161.336 18.776 161.168 18.704 160.928 18.56C160.352 18.272 160.004 17.828 159.884 17.228C159.86 17.012 159.872 16.856 159.92 16.76C159.992 16.664 160.16 16.52 160.424 16.328C160.688 16.112 161.144 15.896 161.792 15.68C162.464 15.44 163.112 15.272 163.736 15.176L164.24 15.104V13.7V12.332L163.844 12.26C163.58 12.212 163.412 12.224 163.34 12.296C163.124 12.488 162.632 12.392 161.864 12.008L161 11.576L159.308 13.268C158.18 14.396 157.556 14.96 157.436 14.96C157.34 14.96 157.052 15.116 156.572 15.428C156.116 15.74 155.708 16.052 155.348 16.364C154.676 16.94 154.34 17.06 154.34 16.724C154.34 16.676 154.592 16.316 155.096 15.644C155.6 14.948 155.912 14.564 156.032 14.492C156.104 14.444 156.236 14.228 156.428 13.844C156.644 13.46 156.944 12.98 157.328 12.404C157.712 11.828 157.904 11.504 157.904 11.432C157.904 11.36 157.712 11.528 157.328 11.936L156.752 12.512L155.744 11.9C155.072 11.468 154.592 11.204 154.304 11.108C154.04 11.012 153.908 10.844 153.908 10.604C153.908 10.34 153.836 10.208 153.692 10.208C153.572 10.208 153.476 10.724 153.404 11.756C153.356 12.764 153.308 13.4 153.26 13.664C153.212 13.928 153.164 14.996 153.116 16.868C152.948 23.3 152.828 26.732 152.756 27.164C152.564 27.956 152.684 28.772 153.116 29.612C153.236 29.9 153.296 30.104 153.296 30.224C153.296 30.392 153.116 30.656 152.756 31.016C152.42 31.376 152.12 31.628 151.856 31.772C151.616 31.868 151.46 31.904 151.388 31.88C151.316 31.88 151.16 31.784 150.92 31.592C150.56 31.304 150.356 31.016 150.308 30.728C150.284 30.44 150.164 29.936 149.948 29.216C149.684 28.184 149.708 27.464 150.02 27.056C150.308 26.696 150.596 25.424 150.884 23.24C151.076 21.536 151.268 16.412 151.46 7.868C151.556 4.724 151.736 2.66 152 1.676C152.072 1.412 152.144 1.244 152.216 1.172C152.288 1.1 152.384 1.064 152.504 1.064C152.744 1.064 152.864 1.112 152.864 1.208C152.864 1.304 152.936 1.364 153.08 1.388C153.224 1.412 153.596 1.688 154.196 2.216L155.096 2.972L154.808 3.476C154.256 4.364 153.956 5.312 153.908 6.32C153.908 6.8 153.86 7.124 153.764 7.292C153.692 7.436 153.62 7.748 153.548 8.228L153.476 8.984L155.132 9.02C156.332 9.044 157.112 9.14 157.472 9.308C157.856 9.452 158.096 9.8 158.192 10.352L158.264 10.856L158.552 10.352C159.32 8.768 159.704 7.88 159.704 7.688C159.704 7.592 159.764 7.412 159.884 7.148C160.196 6.596 160.412 5.996 160.532 5.348C160.58 5.108 160.7 4.892 160.892 4.7C161.036 4.58 161.132 4.52 161.18 4.52C161.252 4.52 161.396 4.592 161.612 4.736C162.092 5.096 162.572 5.54 163.052 6.068C163.556 6.596 163.808 6.944 163.808 7.112C163.808 7.232 163.652 7.532 163.34 8.012C163.028 8.468 162.776 8.768 162.584 8.912C162.488 8.984 162.476 9.068 162.548 9.164C162.62 9.26 162.5 9.464 162.188 9.776C161.924 10.04 161.816 10.184 161.864 10.208L163.124 9.74L164.24 9.308L164.384 8.624C164.432 8.168 164.456 6.764 164.456 4.412C164.48 2.06 164.576 0.835999 164.744 0.739999ZM192.5 18.452C192.596 18.212 193.016 18.344 193.76 18.848C194.168 19.088 194.456 19.208 194.624 19.208C194.792 19.208 194.888 19.244 194.912 19.316C194.936 19.388 194.948 19.532 194.948 19.748C194.972 19.964 195.116 20.24 195.38 20.576C195.716 21.032 195.812 21.548 195.668 22.124C195.548 22.676 195.248 22.952 194.768 22.952C194.144 22.952 193.532 22.46 192.932 21.476C192.692 21.068 192.548 20.756 192.5 20.54C192.452 20.324 192.428 20.024 192.428 19.64C192.428 19.016 192.452 18.62 192.5 18.452ZM197.432 17.768C197.696 17.312 198.368 17.66 199.448 18.812C199.856 19.22 200.096 19.508 200.168 19.676C200.264 19.844 200.312 20.06 200.312 20.324C200.312 20.732 200.156 21.08 199.844 21.368C199.556 21.632 199.268 21.74 198.98 21.692C198.716 21.644 198.452 21.524 198.188 21.332C197.924 21.14 197.792 20.972 197.792 20.828C197.792 20.732 197.732 20.54 197.612 20.252C197.492 20.036 197.408 19.604 197.36 18.956C197.336 18.308 197.36 17.912 197.432 17.768ZM202.94 17.624C203.084 17.264 203.192 17.06 203.264 17.012C203.336 16.94 203.492 16.904 203.732 16.904C204.02 16.904 204.416 17.132 204.92 17.588C205.52 18.14 205.856 18.524 205.928 18.74C206.024 18.956 206 19.256 205.856 19.64C205.688 20 205.556 20.18 205.46 20.18C205.364 20.18 205.148 20.36 204.812 20.72C203.78 21.68 202.772 22.496 201.788 23.168C201.26 23.552 200.84 23.864 200.528 24.104L200.096 24.536L201.896 24.428C203.12 24.38 203.912 24.344 204.272 24.32C204.632 24.272 205.076 24.272 205.604 24.32C205.94 24.344 206.192 24.404 206.36 24.5C206.528 24.572 206.744 24.728 207.008 24.968C207.44 25.376 207.656 25.724 207.656 26.012C207.656 26.324 207.596 26.564 207.476 26.732C207.356 26.876 207.08 27.092 206.648 27.38C206.288 27.62 205.952 27.764 205.64 27.812C205.328 27.836 204.932 27.788 204.452 27.668C202.964 27.356 201.536 27.152 200.168 27.056C198.8 26.936 197.732 26.972 196.964 27.164C194.708 27.644 193.4 28.016 193.04 28.28C192.752 28.472 192.596 28.604 192.572 28.676C192.548 28.772 192.44 28.808 192.248 28.784C192.056 28.76 191.912 28.7 191.816 28.604C191.696 28.508 191.456 28.328 191.096 28.064C190.64 27.704 190.388 27.344 190.34 26.984C190.316 26.6 190.532 26.288 190.988 26.048C191.42 25.832 192.332 25.58 193.724 25.292C195.164 24.98 196.196 24.788 196.82 24.716C197.18 24.668 197.444 24.596 197.612 24.5C197.804 24.38 198.116 24.092 198.548 23.636C199.22 22.964 199.688 22.46 199.952 22.124C201.104 20.78 201.812 19.892 202.076 19.46C202.364 19.004 202.652 18.392 202.94 17.624ZM198.368 1.172C198.608 1.076 198.968 1.16 199.448 1.424C199.928 1.664 200.168 1.892 200.168 2.108C200.168 2.252 200.24 2.348 200.384 2.396C200.48 2.444 200.54 2.636 200.564 2.972C200.588 3.284 200.552 3.512 200.456 3.656C200.384 3.728 200.12 4.22 199.664 5.132C199.208 6.02 198.944 6.548 198.872 6.716C198.8 6.932 198.848 7.04 199.016 7.04C199.208 7.04 199.544 7.196 200.024 7.508C200.528 7.82 200.816 7.976 200.888 7.976C200.96 7.976 201.272 8.228 201.824 8.732C205.064 11.708 207.788 13.592 209.996 14.384C210.428 14.552 210.776 14.708 211.04 14.852C211.328 14.996 211.52 15.068 211.616 15.068C211.736 15.068 211.856 15.152 211.976 15.32C212.12 15.464 212.324 15.584 212.588 15.68C212.876 15.824 213.212 16.076 213.596 16.436C213.98 16.772 214.172 17 214.172 17.12C214.172 17.24 213.908 17.42 213.38 17.66C212.852 17.9 212.372 18.044 211.94 18.092C211.028 18.164 210.26 18.368 209.636 18.704C209.444 18.8 209.084 18.728 208.556 18.488C208.052 18.224 207.74 18.032 207.62 17.912C207.524 17.768 207.332 17.624 207.044 17.48C206.78 17.336 206.588 17.216 206.468 17.12C206.372 17 205.976 16.64 205.28 16.04C204.608 15.44 204.176 15.032 203.984 14.816L203.408 14.204C202.04 12.62 201.164 11.588 200.78 11.108C200.396 10.628 199.892 10.088 199.268 9.488C198.644 8.864 198.272 8.552 198.152 8.552C198.08 8.552 197.744 9.032 197.144 9.992C196.568 10.928 196.1 11.66 195.74 12.188C194.708 13.652 194.216 14.408 194.264 14.456C194.312 14.504 194.6 14.456 195.128 14.312C195.68 14.168 196.148 14.096 196.532 14.096C196.916 14.096 197.24 14.048 197.504 13.952C197.792 13.832 198.512 13.724 199.664 13.628C200.816 13.508 201.512 13.484 201.752 13.556C202.232 13.676 202.52 13.94 202.616 14.348C202.736 14.732 202.604 15.08 202.22 15.392C201.932 15.704 201.656 15.896 201.392 15.968C201.152 16.016 200.852 15.992 200.492 15.896C200.108 15.776 199.412 15.752 198.404 15.824C197.396 15.872 196.784 15.956 196.568 16.076C196.352 16.196 196.16 16.34 195.992 16.508C195.824 16.676 195.644 16.76 195.452 16.76C195.26 16.76 194.972 16.664 194.588 16.472C194.228 16.256 194.048 16.1 194.048 16.004C194.048 15.908 193.964 15.788 193.796 15.644C193.628 15.548 193.46 15.536 193.292 15.608C193.148 15.68 192.86 15.932 192.428 16.364C192.164 16.58 192.008 16.748 191.96 16.868C191.936 16.964 191.96 17.12 192.032 17.336C192.248 17.984 192.08 18.476 191.528 18.812C191.264 18.98 191.036 19.064 190.844 19.064C190.652 19.064 190.124 19.004 189.26 18.884C188.876 18.836 188.684 18.728 188.684 18.56C188.684 18.368 188.612 18.272 188.468 18.272C188.18 18.272 187.988 20.12 187.892 23.816C187.772 28.064 187.568 30.464 187.28 31.016C187.136 31.28 187.028 31.412 186.956 31.412C186.764 31.412 186.488 31.124 186.128 30.548C185.984 30.308 185.864 29.816 185.768 29.072C185.672 28.352 185.684 27.824 185.804 27.488C185.876 27.224 185.9 26.084 185.876 24.068C185.876 22.028 185.9 20.984 185.948 20.936C185.996 20.864 186.044 20.42 186.092 19.604L186.164 18.308L185.768 18.776C185.48 19.064 185.336 19.244 185.336 19.316C185.336 19.364 185.048 19.772 184.472 20.54C183.848 21.332 183.008 22.256 181.952 23.312C180.92 24.368 180.308 24.896 180.116 24.896C179.996 24.896 179.912 24.884 179.864 24.86C179.816 24.812 179.792 24.74 179.792 24.644C179.792 24.524 179.816 24.38 179.864 24.212C179.936 24.044 180.032 23.84 180.152 23.6C180.392 23 180.944 22.052 181.808 20.756C182.264 20.06 182.504 19.664 182.528 19.568C182.576 19.472 182.696 19.292 182.888 19.028C183.08 18.764 183.224 18.548 183.32 18.38L184.184 16.94C184.688 16.124 184.94 15.704 184.94 15.68C184.94 15.632 185.216 15.032 185.768 13.88C186.512 12.32 186.74 11.444 186.452 11.252C186.332 11.204 186.2 11.252 186.056 11.396C185.912 11.516 185.468 11.792 184.724 12.224C183.308 13.064 182.372 13.052 181.916 12.188C181.772 11.852 181.724 11.528 181.772 11.216C181.82 10.88 181.976 10.628 182.24 10.46C182.504 10.244 183.248 9.944 184.472 9.56C185.72 9.152 186.38 8.9 186.452 8.804C186.5 8.732 186.548 8.18 186.596 7.148C186.644 6.116 186.644 5.336 186.596 4.808C186.524 3.56 186.548 2.756 186.668 2.396C186.812 2.036 187.16 1.784 187.712 1.64C188.528 1.448 188.936 1.568 188.936 2C188.936 2.144 188.996 2.288 189.116 2.432C189.236 2.576 189.356 2.828 189.476 3.188C189.596 3.524 189.56 3.848 189.368 4.16C189.2 4.472 189.056 5.036 188.936 5.852C188.84 6.668 188.744 7.256 188.648 7.616C188.576 7.952 188.564 8.168 188.612 8.264C188.708 8.456 189.332 8.36 190.484 7.976C190.964 7.808 191.288 7.736 191.456 7.76C191.624 7.784 191.792 7.928 191.96 8.192C192.272 8.624 192.32 9.044 192.104 9.452C191.888 9.86 191.504 10.064 190.952 10.064C190.544 10.064 190.316 10.112 190.268 10.208C190.22 10.304 189.98 10.388 189.548 10.46C189.044 10.508 188.768 10.592 188.72 10.712C188.672 10.808 188.768 11.06 189.008 11.468C189.344 11.948 189.512 12.296 189.512 12.512C189.512 12.728 189.296 13.076 188.864 13.556C188.432 14.036 188.228 14.408 188.252 14.672C188.276 14.888 188.336 15.032 188.432 15.104C188.528 15.176 188.732 15.26 189.044 15.356C189.548 15.5 189.848 15.632 189.944 15.752C190.04 15.872 190.148 15.932 190.268 15.932C190.364 15.932 190.724 15.524 191.348 14.708C191.972 13.868 192.392 13.244 192.608 12.836C192.776 12.524 193.016 12.14 193.328 11.684C194.312 10.148 195.044 8.744 195.524 7.472C195.764 6.752 195.98 6.188 196.172 5.78C196.364 5.372 196.52 5.024 196.64 4.736C196.76 4.448 196.964 3.992 197.252 3.368C197.54 2.744 197.708 2.312 197.756 2.072C197.852 1.592 198.056 1.292 198.368 1.172ZM223.136 18.704C224.024 17.552 224.468 17.168 224.468 17.552C224.468 17.672 224.408 17.768 224.288 17.84C224.168 17.888 224.108 18.02 224.108 18.236C224.108 18.428 224.024 18.728 223.856 19.136L223.424 20.216C222.68 21.968 222.296 23.288 222.272 24.176C222.272 24.416 222.308 24.596 222.38 24.716C222.452 24.812 222.632 24.932 222.92 25.076C223.496 25.436 223.808 25.928 223.856 26.552C223.904 27.152 223.652 27.716 223.1 28.244C222.812 28.532 222.404 28.76 221.876 28.928C221.348 29.096 220.988 29.12 220.796 29C220.652 28.952 220.436 28.7 220.148 28.244C219.884 27.788 219.752 27.488 219.752 27.344C219.752 27.272 219.488 26.912 218.96 26.264C218.384 25.568 218.288 25.124 218.672 24.932C218.744 24.836 218.78 24.728 218.78 24.608C218.708 24.128 218.768 23.888 218.96 23.888C219.08 23.888 219.32 23.708 219.68 23.348C219.968 23.06 220.46 22.472 221.156 21.584C221.852 20.672 222.2 20.168 222.2 20.072C222.2 20.024 222.512 19.568 223.136 18.704ZM218.888 10.46C219.44 10.244 220.148 10.268 221.012 10.532C221.876 10.772 222.44 11.12 222.704 11.576C222.968 11.984 223.04 12.5 222.92 13.124C222.8 13.724 222.572 14.132 222.236 14.348C222.092 14.396 221.9 14.432 221.66 14.456C221.444 14.48 221.24 14.492 221.048 14.492C220.856 14.468 220.76 14.432 220.76 14.384C220.76 14.288 220.448 13.892 219.824 13.196C219.08 12.332 218.636 11.696 218.492 11.288C218.348 10.88 218.48 10.604 218.888 10.46ZM232.064 9.92C232.4 9.704 232.736 9.704 233.072 9.92C233.432 10.136 233.684 10.508 233.828 11.036C233.948 11.468 233.972 12.056 233.9 12.8C233.852 13.472 233.708 14.312 233.468 15.32C233.228 16.328 233.036 16.976 232.892 17.264C232.196 18.56 231.848 19.34 231.848 19.604C231.848 19.748 231.992 19.82 232.28 19.82C232.592 19.82 232.988 19.94 233.468 20.18C233.996 20.396 234.668 20.792 235.484 21.368C236.324 21.944 236.78 22.328 236.852 22.52C236.948 22.736 236.984 23.108 236.96 23.636C236.936 24.164 236.864 24.572 236.744 24.86C236.624 25.124 236.372 25.328 235.988 25.472C235.724 25.568 235.52 25.616 235.376 25.616C235.256 25.592 235.088 25.496 234.872 25.328C234.512 25.088 234.104 24.68 233.648 24.104L232.388 22.628C232.028 22.22 231.848 21.968 231.848 21.872C231.848 21.776 231.74 21.572 231.524 21.26L231.128 20.792L230.408 21.548C229.928 22.076 229.352 22.616 228.68 23.168C228.032 23.696 227.504 24.176 227.096 24.608C226.736 24.992 226.28 25.376 225.728 25.76C225.2 26.12 224.9 26.276 224.828 26.228C224.756 26.18 224.936 25.856 225.368 25.256C225.824 24.656 226.052 24.296 226.052 24.176C226.052 24.056 226.1 23.996 226.196 23.996C226.244 23.996 226.472 23.744 226.88 23.24C227.288 22.712 227.492 22.412 227.492 22.34C227.492 22.292 227.732 21.944 228.212 21.296C228.692 20.624 228.932 20.24 228.932 20.144C228.932 20.048 229.1 19.736 229.436 19.208C229.796 18.536 230.204 17.42 230.66 15.86C231.14 14.3 231.38 13.196 231.38 12.548C231.38 11.996 231.44 11.456 231.56 10.928C231.704 10.4 231.872 10.064 232.064 9.92ZM239.48 14.564C239.6 14.42 239.708 13.4 239.804 11.504C239.9 9.584 240.032 8.528 240.2 8.336C240.392 8.12 240.62 8.048 240.884 8.12C241.172 8.192 241.316 8.24 241.316 8.264C241.652 8.744 241.868 9.5 241.964 10.532C242.06 11.444 242.192 11.9 242.36 11.9C242.408 11.9 242.492 11.852 242.612 11.756C242.756 11.612 242.852 11.576 242.9 11.648C242.972 11.72 242.948 11.84 242.828 12.008C242.684 12.32 242.528 12.932 242.36 13.844C242.216 14.732 242.108 15.572 242.036 16.364C241.988 17.468 241.892 18.08 241.748 18.2C241.556 18.44 241.292 18.452 240.956 18.236C240.644 17.996 240.356 17.564 240.092 16.94C239.972 16.724 239.864 16.616 239.768 16.616C239.672 16.616 239.624 16.544 239.624 16.4C239.624 16.232 239.552 16.124 239.408 16.076C239.264 16.028 239.204 15.812 239.228 15.428C239.252 15.02 239.336 14.732 239.48 14.564ZM228.68 6.536C228.8 6.272 228.896 6.116 228.968 6.068C229.064 5.996 229.196 5.96 229.364 5.96C229.652 6.032 229.916 6.212 230.156 6.5L230.48 6.932L230.12 8.336C229.904 9.296 229.724 10.676 229.58 12.476C229.436 14.276 229.388 15.932 229.436 17.444C229.46 18.428 229.304 18.98 228.968 19.1C228.824 19.148 228.62 19.04 228.356 18.776C228.116 18.488 227.996 18.224 227.996 17.984C227.996 17.816 227.9 17.528 227.708 17.12C227.612 16.832 227.564 16.568 227.564 16.328C227.564 16.064 227.612 15.584 227.708 14.888C227.9 13.832 228.044 12.476 228.14 10.82C228.26 9.044 228.344 7.976 228.392 7.616C228.44 7.256 228.536 6.896 228.68 6.536ZM232.064 3.044C233.24 2.828 234.404 2.912 235.556 3.296C237.02 3.8 237.956 4.28 238.364 4.736C238.844 5.24 238.868 5.924 238.436 6.788C238.292 7.124 238.208 7.436 238.184 7.724C238.16 7.988 238.172 8.612 238.22 9.596C238.34 11.564 238.352 13.592 238.256 15.68C238.208 16.88 238.148 17.66 238.076 18.02C238.004 18.38 237.848 18.812 237.608 19.316C237.296 19.964 237.032 20.288 236.816 20.288C236.624 20.288 236.396 20.204 236.132 20.036C235.868 19.868 235.736 19.712 235.736 19.568C235.736 19.4 235.664 19.256 235.52 19.136C235.376 19.016 235.148 18.644 234.836 18.02C234.596 17.636 234.464 17.36 234.44 17.192C234.44 17.024 234.476 16.748 234.548 16.364C234.692 15.812 234.788 13.76 234.836 10.208L234.872 4.844L234.26 4.592C233.852 4.448 233.528 4.376 233.288 4.376C233.024 4.376 232.532 4.46 231.812 4.628C231.092 4.796 230.732 4.928 230.732 5.024C230.732 5.096 230.588 5.204 230.3 5.348C229.916 5.54 229.616 5.576 229.4 5.456C229.208 5.312 229.16 5.048 229.256 4.664C229.328 4.256 229.568 3.944 229.976 3.728C230.408 3.488 231.104 3.26 232.064 3.044ZM223.28 2.18C223.736 2.06 224.54 2.192 225.692 2.576C226.388 2.816 226.82 2.996 226.988 3.116C227.156 3.212 227.3 3.392 227.42 3.656C227.852 4.688 227.672 5.6 226.88 6.392C226.664 6.656 226.556 6.86 226.556 7.004C226.556 7.292 226.34 7.34 225.908 7.148C225.716 7.052 225.548 6.932 225.404 6.788C225.14 6.5 224.9 6.14 224.684 5.708C224.396 5.132 223.916 4.496 223.244 3.8C223.028 3.584 222.92 3.272 222.92 2.864C222.944 2.456 223.064 2.228 223.28 2.18ZM244.736 0.991998C245.048 0.919999 245.42 0.919999 245.852 0.991998C245.876 0.991998 245.888 0.991998 245.888 0.991998C246.44 1.136 246.764 1.556 246.86 2.252C246.956 2.924 247.04 5.24 247.112 9.2C247.112 9.344 247.112 9.44 247.112 9.488C247.16 16.952 247.28 21.56 247.472 23.312C247.544 24.272 247.58 25.316 247.58 26.444C247.58 27.284 247.556 27.824 247.508 28.064C247.484 28.28 247.304 28.652 246.968 29.18C246.224 30.452 245.636 31.22 245.204 31.484C244.796 31.748 244.364 31.604 243.908 31.052C243.62 30.692 243.116 30.332 242.396 29.972C241.7 29.612 241.328 29.384 241.28 29.288C241.232 29.216 241.04 29.108 240.704 28.964C240.416 28.844 239.972 28.52 239.372 27.992C238.772 27.464 238.472 27.128 238.472 26.984C238.472 26.936 238.52 26.924 238.616 26.948C238.736 26.972 238.88 27.008 239.048 27.056C239.216 27.104 239.42 27.164 239.66 27.236C241.148 27.812 242.216 27.968 242.864 27.704C243.512 27.44 243.908 26.696 244.052 25.472C244.124 24.92 244.184 22.316 244.232 17.66C244.28 12.98 244.304 8.912 244.304 5.456V1.172L244.736 0.991998ZM260.792 8.804C260.792 8.516 261.044 8.516 261.548 8.804C261.716 8.924 261.872 9.068 262.016 9.236C262.208 9.404 262.412 9.464 262.628 9.416C262.964 9.32 263.168 9.296 263.24 9.344C263.336 9.392 263.396 9.56 263.42 9.848C263.444 10.232 263.54 10.532 263.708 10.748C263.924 11.036 263.96 11.492 263.816 12.116C263.672 12.74 263.42 13.208 263.06 13.52C262.916 13.664 262.796 13.736 262.7 13.736C262.628 13.736 262.472 13.652 262.232 13.484C261.872 13.268 261.668 13.076 261.62 12.908C261.572 12.74 261.44 12.488 261.224 12.152C260.936 11.672 260.708 11.072 260.54 10.352C260.396 9.608 260.408 9.2 260.576 9.128C260.72 9.08 260.792 8.972 260.792 8.804ZM265.976 4.268C266.192 4.028 266.6 4.088 267.2 4.448C267.44 4.616 267.692 4.784 267.956 4.952C268.22 5.096 268.472 5.384 268.712 5.816C268.832 6.104 268.916 6.404 268.964 6.716C269.012 7.004 269.036 7.628 269.036 8.588C269.036 10.028 269.072 10.76 269.144 10.784C269.24 10.832 269.336 10.82 269.432 10.748C269.552 10.652 269.732 10.436 269.972 10.1C271.676 7.844 272.528 6.44 272.528 5.888C272.504 5.744 272.528 5.636 272.6 5.564C272.672 5.468 272.816 5.396 273.032 5.348C273.296 5.276 273.464 5.252 273.536 5.276C273.632 5.3 273.788 5.42 274.004 5.636C274.34 5.924 274.604 6.128 274.796 6.248C275.012 6.344 275.228 6.608 275.444 7.04C275.66 7.472 275.732 7.808 275.66 8.048C275.468 8.624 275.12 8.996 274.616 9.164C274.232 9.308 273.896 9.5 273.608 9.74C273.32 9.98 272.84 10.292 272.168 10.676C271.52 11.06 270.848 11.516 270.152 12.044C269.48 12.548 269.108 12.884 269.036 13.052C268.892 13.34 268.988 13.52 269.324 13.592C269.66 13.616 270.416 13.58 271.592 13.484C273.128 13.388 274.256 13.292 274.976 13.196C275.696 13.1 276.74 13.052 278.108 13.052C279.476 13.052 280.16 13.004 280.16 12.908C280.16 12.788 280.244 12.728 280.412 12.728C280.58 12.728 280.82 12.632 281.132 12.44C281.78 12.056 282.26 12.116 282.572 12.62C282.764 12.932 283.064 13.196 283.472 13.412C283.88 13.628 284.192 13.868 284.408 14.132L284.696 14.528L284.372 15.104C284.18 15.44 283.88 15.692 283.472 15.86C283.184 15.932 282.98 15.968 282.86 15.968C282.74 15.968 282.548 15.884 282.284 15.716C281.924 15.548 281.504 15.416 281.024 15.32C280.064 15.2 278.684 15.14 276.884 15.14C275.108 15.116 273.8 15.152 272.96 15.248C272.312 15.368 271.52 15.476 270.584 15.572C269.648 15.668 269.12 15.74 269 15.788C268.88 15.836 268.796 16.928 268.748 19.064C268.628 22.208 268.52 24.344 268.424 25.472C268.376 26.024 268.292 26.924 268.172 28.172C268.076 29.396 267.98 30.176 267.884 30.512C267.812 30.872 267.752 31.172 267.704 31.412C267.656 31.652 267.512 31.916 267.272 32.204C267.08 32.42 266.96 32.528 266.912 32.528C266.864 32.552 266.78 32.492 266.66 32.348C266.492 32.132 266.384 31.856 266.336 31.52C266.288 31.208 266.216 30.764 266.12 30.188C266.024 29.78 265.916 28.892 265.796 27.524C265.7 26.132 265.64 25.136 265.616 24.536C265.616 24.032 265.616 23.12 265.616 21.8C265.64 20.456 265.64 19.496 265.616 18.92C265.592 18.32 265.568 17.696 265.544 17.048C265.544 16.592 265.52 16.328 265.472 16.256C265.448 16.184 265.34 16.148 265.148 16.148C264.86 16.148 264.476 16.22 263.996 16.364C263.516 16.508 262.748 16.652 261.692 16.796C259.364 17.108 257.528 17.744 256.184 18.704C255.92 18.872 255.692 18.956 255.5 18.956C255.308 18.956 255.032 18.872 254.672 18.704C254.312 18.536 254.024 18.356 253.808 18.164C253.4 17.804 253.232 17.504 253.304 17.264C253.304 17.192 253.34 17.156 253.412 17.156C253.532 17.156 253.964 17 254.708 16.688C256.796 15.776 260.204 14.96 264.932 14.24L265.616 14.132L265.688 9.344C265.736 6.128 265.832 4.436 265.976 4.268ZM267.848 0.775999C269.216 0.655999 269.924 0.559999 269.972 0.487998C270.02 0.391998 270.14 0.295998 270.332 0.2C270.548 0.0799983 270.74 0.0199976 270.908 0.0199976C271.1 0.0199976 271.472 0.163998 272.024 0.451998C272.6 0.739999 272.972 0.955999 273.14 1.1C273.332 1.34 273.404 1.652 273.356 2.036C273.332 2.396 273.236 2.66 273.068 2.828C272.612 3.188 272.24 3.224 271.952 2.936C271.808 2.816 271.16 2.78 270.008 2.828C268.856 2.852 267.944 2.948 267.272 3.116C266.504 3.332 266.06 3.488 265.94 3.584C265.82 3.656 265.364 3.728 264.572 3.8C263.78 3.872 263.216 3.824 262.88 3.656C262.544 3.536 262.208 3.32 261.872 3.008C261.56 2.696 261.404 2.48 261.404 2.36C261.404 2.192 262.16 1.928 263.672 1.568C265.208 1.208 266.6 0.943999 267.848 0.775999ZM305.072 18.416C309.56 18.176 312.236 18.38 313.1 19.028C313.364 19.244 313.568 19.352 313.712 19.352C313.952 19.352 314.156 19.544 314.324 19.928C314.516 20.288 314.516 20.528 314.324 20.648C314.228 20.696 314.204 20.828 314.252 21.044C314.3 21.26 314.252 21.608 314.108 22.088C313.964 22.568 313.844 22.988 313.748 23.348C313.7 23.684 313.592 24.104 313.424 24.608C313.256 25.088 313.124 25.364 313.028 25.436C312.956 25.556 312.92 25.724 312.92 25.94C312.92 26.132 312.812 26.516 312.596 27.092C312.404 27.668 312.308 28.208 312.308 28.712C312.308 29.168 312.188 29.624 311.948 30.08C311.708 30.536 311.42 30.824 311.084 30.944C310.868 31.04 310.532 31.052 310.076 30.98C309.62 30.908 309.284 30.776 309.068 30.584C308.924 30.464 308.312 30.38 307.232 30.332C306.176 30.284 305.3 30.284 304.604 30.332C303.86 30.404 303.368 30.524 303.128 30.692C302.912 30.86 302.708 30.944 302.516 30.944C302.348 30.944 302.228 31.064 302.156 31.304C302.012 31.736 301.724 31.976 301.292 32.024C300.884 32.072 300.452 31.892 299.996 31.484C299.732 31.244 299.552 31.028 299.456 30.836C299.36 30.644 299.252 30.248 299.132 29.648C298.964 28.832 298.76 28.004 298.52 27.164C298.28 26.324 298.112 25.616 298.016 25.04C297.944 24.44 297.836 23.948 297.692 23.564C297.548 23.228 297.452 22.748 297.404 22.124C297.38 21.476 297.44 21.008 297.584 20.72C297.704 20.408 297.884 20.252 298.124 20.252C298.364 20.252 298.712 20.144 299.168 19.928C299.624 19.688 300.38 19.4 301.436 19.064C302.516 18.704 303.728 18.488 305.072 18.416ZM309.248 21.26C309.08 21.212 308.372 21.164 307.124 21.116C305.9 21.068 305.12 21.08 304.784 21.152C302.24 21.512 300.872 21.86 300.68 22.196C300.608 22.292 300.596 22.448 300.644 22.664C300.692 22.88 300.764 23.324 300.86 23.996C301.076 25.652 301.304 26.66 301.544 27.02C301.688 27.26 301.76 27.488 301.76 27.704C301.76 27.92 301.844 28.052 302.012 28.1C302.18 28.148 302.528 28.112 303.056 27.992C303.728 27.872 304.748 27.788 306.116 27.74L308.204 27.632L308.564 26.516C308.804 25.868 309.02 25.076 309.212 24.14C309.404 23.18 309.5 22.472 309.5 22.016C309.5 21.608 309.416 21.356 309.248 21.26ZM299.348 8.192C299.564 7.832 299.828 7.448 300.14 7.04C300.476 6.632 300.836 6.14 301.22 5.564C301.604 4.964 301.832 4.664 301.904 4.664C301.976 4.664 302.072 4.52 302.192 4.232C302.336 3.92 302.696 3.38 303.272 2.612C303.848 1.844 304.208 1.304 304.352 0.991998C304.496 0.655998 304.58 0.487998 304.604 0.487998C304.652 0.487998 304.88 0.595998 305.288 0.811998C305.72 1.052 306.092 1.328 306.404 1.64C306.716 1.952 306.836 2.18 306.764 2.324C306.716 2.444 306.824 2.648 307.088 2.936C307.544 3.44 307.688 3.932 307.52 4.412C307.424 4.628 307.244 4.88 306.98 5.168C306.74 5.432 306.56 5.564 306.44 5.564C306.368 5.564 305.9 5.876 305.036 6.5C304.46 6.884 303.872 7.352 303.272 7.904C302.696 8.432 301.652 9.464 300.14 11C299.78 11.36 299.6 11.576 299.6 11.648C299.744 11.768 300.248 11.792 301.112 11.72C301.976 11.624 303.008 11.48 304.208 11.288C305.432 11.072 306.308 10.88 306.836 10.712C307.436 10.472 307.82 10.328 307.988 10.28C308.276 10.208 308.324 9.968 308.132 9.56C307.964 9.272 308.024 8.804 308.312 8.156C308.6 7.508 308.936 7.1 309.32 6.932C310.04 6.668 311.036 7.148 312.308 8.372C313.1 9.14 313.616 9.74 313.856 10.172C314.12 10.58 314.324 11.108 314.468 11.756C314.612 12.38 314.612 12.824 314.468 13.088C314.348 13.352 314.288 13.568 314.288 13.736C314.288 14 314.096 14.312 313.712 14.672C313.352 15.032 313.04 15.212 312.776 15.212C312.416 15.212 311.936 14.996 311.336 14.564C310.736 14.132 310.256 13.652 309.896 13.124C309.632 12.668 309.452 12.416 309.356 12.368C309.284 12.32 309.164 12.344 308.996 12.44C308.78 12.608 308.276 12.896 307.484 13.304C306.716 13.688 306.032 14.048 305.432 14.384C304.856 14.72 304.376 14.912 303.992 14.96C303.632 14.984 303.38 15.056 303.236 15.176C303.116 15.296 302.672 15.476 301.904 15.716C301.136 15.956 300.656 16.076 300.464 16.076C300.248 16.076 299.912 16.232 299.456 16.544C299 16.88 298.64 17.072 298.376 17.12C298.136 17.168 297.872 17.084 297.584 16.868C297.272 16.652 297.092 16.544 297.044 16.544C296.852 16.544 296.636 16.352 296.396 15.968C296.156 15.584 295.988 15.164 295.892 14.708C295.772 14.06 295.664 13.724 295.568 13.7C295.472 13.652 295.424 13.448 295.424 13.088C295.424 12.872 295.508 12.644 295.676 12.404C295.844 12.164 296.24 11.732 296.864 11.108C298.16 9.812 298.988 8.84 299.348 8.192Z" fill="black"/>
</svg>
